<svg width="39" height="39" viewBox="0 0 39 39" fill="none" xmlns="http://www.w3.org/2000/svg">
<path d="M28.2372 0H10.7624C4.828 0 0 4.82823 0 10.7626V28.2374C0 34.172 4.828 39 10.7624 39H28.2372C34.172 39 39 34.1718 39 28.2374V10.7626C39.0002 4.82823 34.172 0 28.2372 0ZM35.54 28.2374C35.54 32.264 32.264 35.5397 28.2374 35.5397H10.7624C6.73599 35.54 3.46027 32.264 3.46027 28.2374V10.7626C3.46027 6.73622 6.73599 3.46027 10.7624 3.46027H28.2372C32.2638 3.46027 35.5397 6.73622 35.5397 10.7626V28.2374H35.54Z" fill="#21C5F9"/>
<path d="M19.5 9.45117C13.9587 9.45117 9.45068 13.9592 9.45068 19.5005C9.45068 25.0415 13.9587 29.5493 19.5 29.5493C25.0413 29.5493 29.5493 25.0415 29.5493 19.5005C29.5493 13.9592 25.0413 9.45117 19.5 9.45117ZM19.5 26.0888C15.8669 26.0888 12.911 23.1333 12.911 19.5003C12.911 15.867 15.8667 12.9112 19.5 12.9112C23.1333 12.9112 26.089 15.867 26.089 19.5003C26.089 23.1333 23.133 26.0888 19.5 26.0888Z" fill="#21C5F9"/>
<path d="M29.9706 6.51709C29.304 6.51709 28.649 6.78699 28.1782 7.25989C27.7051 7.73049 27.4331 8.38564 27.4331 9.05462C27.4331 9.72153 27.7053 10.3764 28.1782 10.8493C28.6488 11.3199 29.304 11.5922 29.9706 11.5922C30.6396 11.5922 31.2925 11.3199 31.7654 10.8493C32.2383 10.3764 32.5082 9.7213 32.5082 9.05462C32.5082 8.38564 32.2383 7.73049 31.7654 7.25989C31.2948 6.78699 30.6396 6.51709 29.9706 6.51709Z" fill="#21C5F9"/>
</svg>
