<svg width="29" height="29" viewBox="0 0 29 29" fill="none" xmlns="http://www.w3.org/2000/svg">
<path d="M0.941712 27.7453H4.71176C5.23188 27.7453 5.65347 27.3236 5.65347 26.8035V10.3247C5.65347 9.80455 5.23188 9.38301 4.71176 9.38301H0.941712C0.421541 9.38301 0 9.80455 0 10.3247V26.8035C0 27.3236 0.421541 27.7453 0.941712 27.7453Z" fill="white"/>
<path d="M0.941712 6.48595H4.71176C5.23188 6.48595 5.65347 6.06435 5.65347 5.54424V2.19641C5.65347 1.67629 5.23188 1.2547 4.71176 1.2547H0.941712C0.421541 1.2547 0 1.67629 0 2.19641V5.54424C0 6.06435 0.421541 6.48595 0.941712 6.48595Z" fill="white"/>
<path d="M27.5816 11.2943C27.0518 10.597 26.2706 10.0235 25.2377 9.57403C24.2048 9.12484 23.0647 8.90009 21.8173 8.90009C19.285 8.90009 17.1393 9.86651 15.3801 11.7997C15.0301 12.1844 14.7756 12.1003 14.7756 11.5801V10.3247C14.7756 9.80455 14.354 9.38301 13.8338 9.38301H10.4661C9.94595 9.38301 9.52441 9.80455 9.52441 10.3247V26.8035C9.52441 27.3236 9.94601 27.7453 10.4661 27.7453H14.2362C14.7563 27.7453 15.1779 27.3236 15.1779 26.8035V21.0726C15.1779 18.6851 15.3221 17.0486 15.6104 16.1634C15.8986 15.2782 16.432 14.5674 17.2099 14.0309C17.9879 13.4943 18.8664 13.2259 19.8456 13.2259C20.6101 13.2259 21.2641 13.4137 21.8074 13.7894C22.3506 14.1651 22.743 14.6913 22.9844 15.3688C23.226 16.0462 23.3466 17.5383 23.3466 19.8455V26.8035C23.3466 27.3236 23.7682 27.7452 24.2883 27.7452H28.0584C28.5785 27.7452 29 27.3236 29 26.8035V17.4712C29 15.8215 28.896 14.5539 28.6883 13.6687C28.4806 12.7835 28.1117 11.992 27.5816 11.2943Z" fill="white"/>
</svg>
