<svg width="148" height="148" viewBox="0 0 148 148" fill="none" xmlns="http://www.w3.org/2000/svg">
<circle cx="74" cy="74" r="74" fill="#21C5F9"/>
<g clip-path="url(#clip0)">
<path d="M120.593 72.5938H97.9514V69.3943H104.06C104.837 69.3943 105.467 68.7647 105.467 67.988C105.467 67.2114 104.837 66.5818 104.06 66.5818H97.9514V63.3821H102.193C103.773 63.3821 105.258 62.7669 106.375 61.6496L115.624 52.401C116.227 52.7012 116.895 52.861 117.588 52.861C118.766 52.861 119.874 52.402 120.708 51.5687C121.541 50.7353 122 49.6274 122 48.4488C122 47.2701 121.541 46.1622 120.708 45.3288C119.874 44.4953 118.766 44.0363 117.588 44.0363C116.409 44.0363 115.301 44.4953 114.468 45.3286C113.634 46.162 113.175 47.2699 113.175 48.4486C113.175 49.1416 113.335 49.8096 113.635 50.4122L104.387 59.6608C103.801 60.2468 103.021 60.5696 102.192 60.5696H97.9512V57.4669C97.9512 53.3764 94.6233 50.0487 90.533 50.0487H87.4303V37.5997C89.1755 37.0111 90.4363 35.3598 90.4363 33.4184C90.4363 30.9854 88.4568 29.0062 86.024 29.0062C83.5912 29.0062 81.6118 30.9856 81.6118 33.4184C81.6118 35.3598 82.8725 37.0109 84.6178 37.5997V50.0485H81.4183V43.9396C81.4183 43.163 80.7887 42.5333 80.012 42.5333C79.2354 42.5333 78.6058 43.163 78.6058 43.9396V50.0485H75.4061V27.4065C75.4061 26.6298 74.7765 26.0002 73.9999 26.0002C73.2233 26.0002 72.5936 26.6298 72.5936 27.4065V50.0485H69.3941V43.9396C69.3941 43.163 68.7645 42.5333 67.9879 42.5333C67.2113 42.5333 66.5817 43.163 66.5817 43.9396V50.0485H63.3822V45.8074C63.3822 44.2274 62.7668 42.7418 61.6495 41.6247L52.3977 32.3729C53.215 30.7228 52.9411 28.6651 51.5688 27.2926C49.8483 25.5723 47.0491 25.5725 45.3288 27.2926C43.6085 29.013 43.6085 31.8121 45.3288 33.5326C46.1891 34.3927 47.3189 34.8228 48.4488 34.8228C49.1215 34.8228 49.7932 34.6666 50.4091 34.3616L59.6609 43.6135C60.247 44.1995 60.5697 44.9787 60.5697 45.8074V50.0485H57.4669C56.8398 50.0485 56.216 50.1272 55.613 50.2823C54.8609 50.4758 54.4081 51.2425 54.6016 51.9947C54.7951 52.747 55.562 53.1998 56.314 53.0061C56.6881 52.9099 57.0758 52.861 57.4668 52.861H90.533C93.0727 52.861 95.1387 54.9272 95.1387 57.4667V90.5331C95.1387 90.9237 95.09 91.3113 94.994 91.685C94.8007 92.4372 95.2537 93.2037 96.0057 93.397C96.1231 93.4272 96.2409 93.4416 96.3569 93.4416C96.9834 93.4416 97.5547 93.02 97.7178 92.3851C97.8727 91.7828 97.9512 91.1596 97.9512 90.533V87.4302H110.4C110.989 89.1755 112.64 90.4362 114.581 90.4362C117.014 90.4362 118.994 88.457 118.994 86.024C118.994 83.591 117.014 81.6117 114.581 81.6117C112.64 81.6117 110.989 82.8725 110.4 84.6177H97.9512V81.4181H104.06C104.837 81.4181 105.466 80.7884 105.466 80.0118C105.466 79.2352 104.837 78.6056 104.06 78.6056H97.9512V75.4063H120.593C121.37 75.4063 122 74.7766 122 74C122 73.2234 121.37 72.5938 120.593 72.5938ZM116.456 47.3176C116.759 47.0153 117.16 46.849 117.587 46.849C118.015 46.849 118.416 47.0153 118.719 47.3176C119.021 47.6198 119.187 48.0214 119.187 48.4488C119.187 48.8761 119.021 49.2777 118.719 49.5799C118.416 49.8822 118.015 50.0485 117.587 50.0485C117.16 50.0485 116.759 49.8822 116.456 49.5799C116.154 49.2777 115.988 48.8761 115.988 48.4488C115.988 48.0214 116.154 47.6196 116.456 47.3176ZM49.5798 31.544C48.9562 32.1674 47.9412 32.1676 47.3172 31.5438C46.6934 30.92 46.6934 29.9051 47.3172 29.2815C47.6292 28.9695 48.0387 28.8136 48.4486 28.8136C48.8583 28.8136 49.268 28.9696 49.5798 29.2815C50.2036 29.9053 50.2036 30.9202 49.5798 31.544ZM86.024 35.0182C85.142 35.0182 84.4243 34.3004 84.4243 33.4184C84.4243 32.5364 85.1418 31.8187 86.024 31.8187C86.9062 31.8187 87.6238 32.5364 87.6238 33.4184C87.6238 34.3004 86.906 35.0182 86.024 35.0182ZM114.581 84.4244C115.464 84.4244 116.181 85.1422 116.181 86.0242C116.181 86.9063 115.463 87.6239 114.581 87.6239C113.699 87.6239 112.982 86.9062 112.982 86.0242C112.982 85.142 113.699 84.4244 114.581 84.4244Z" fill="white"/>
<path d="M102.671 114.468C101.299 113.095 99.241 112.821 97.5908 113.638L88.339 104.386C87.7529 103.801 87.4302 103.021 87.4302 102.193V97.9515H90.5329C91.1601 97.9515 91.7837 97.8728 92.3865 97.7177C93.1386 97.5242 93.5914 96.7575 93.3979 96.0053C93.2044 95.2532 92.4381 94.8004 91.6855 94.9939C91.3116 95.0901 90.9239 95.1388 90.5329 95.1388H57.4667C54.927 95.1388 52.861 93.0726 52.861 90.5331V57.4668C52.861 57.0759 52.9097 56.6882 53.0059 56.3145C53.1996 55.5624 52.7468 54.7957 51.9947 54.602C51.2425 54.4084 50.4758 54.8612 50.2823 55.6132C50.127 56.2159 50.0485 56.8395 50.0485 57.4668V60.5696H37.5995C37.0109 58.8243 35.3596 57.5636 33.4182 57.5636C30.9852 57.5636 29.006 59.5428 29.006 61.9758C29.006 64.4088 30.9854 66.3881 33.4182 66.3881C35.3596 66.3881 37.0107 65.1273 37.5995 63.3821H50.0483V66.5817H43.9394C43.1627 66.5817 42.5331 67.2114 42.5331 67.988C42.5331 68.7646 43.1627 69.3942 43.9394 69.3942H50.0483V72.5937H27.4062C26.6296 72.5937 26 73.2234 26 74C26 74.7766 26.6296 75.4062 27.4062 75.4062H50.0483V78.6057H43.9394C43.1627 78.6057 42.5331 79.2353 42.5331 80.0119C42.5331 80.7886 43.1627 81.4182 43.9394 81.4182H50.0483V84.6179H45.807C44.227 84.6179 42.7414 85.2331 41.6243 86.3504L32.3757 95.599C31.7731 95.2988 31.105 95.139 30.412 95.139C29.2334 95.139 28.1255 95.598 27.2921 96.4313C26.459 97.2647 26 98.3728 26 99.5512C26 100.73 26.459 101.838 27.2924 102.671C28.1257 103.505 29.2338 103.963 30.4124 103.963C31.591 103.963 32.699 103.504 33.5324 102.671C34.3658 101.838 34.8248 100.73 34.8248 99.5512C34.8248 98.8582 34.6651 98.1902 34.3649 97.5876L43.6135 88.339C44.1994 87.753 44.9787 87.4302 45.8076 87.4302H50.0488V90.5329C50.0488 94.6234 53.3768 97.9511 57.4671 97.9511H60.5698V110.4C58.8246 110.989 57.5638 112.64 57.5638 114.581C57.5638 117.014 59.5432 118.993 61.976 118.993C64.4088 118.993 66.3883 117.014 66.3883 114.581C66.3883 112.64 65.1275 110.989 63.3823 110.4V97.9511H66.5818V104.06C66.5818 104.837 67.2114 105.466 67.988 105.466C68.7646 105.466 69.3943 104.837 69.3943 104.06V97.9511H72.5936V120.594C72.5936 121.37 73.2232 122 73.9998 122C74.7764 122 75.4061 121.37 75.4061 120.594V97.9515H78.6055V104.06C78.6055 104.837 79.2352 105.467 80.0118 105.467C80.7884 105.467 81.418 104.837 81.418 104.06V97.9515H84.6175V102.193C84.6175 103.773 85.2329 105.258 86.3502 106.375L95.602 115.627C94.7847 117.277 95.0586 119.335 96.4311 120.707C97.2912 121.568 98.4212 121.998 99.5511 121.998C100.681 121.998 101.811 121.568 102.671 120.707C104.391 118.987 104.391 116.188 102.671 114.468ZM33.4182 63.5756C32.536 63.5756 31.8185 62.8578 31.8185 61.9758C31.8185 61.0936 32.5362 60.3761 33.4182 60.3761C34.3002 60.3761 35.018 61.0938 35.018 61.9758C35.0182 62.858 34.3004 63.5756 33.4182 63.5756ZM31.5434 100.682C31.2412 100.985 30.8395 101.151 30.4122 101.151C29.9849 101.151 29.5833 100.985 29.281 100.682C28.9788 100.38 28.8125 99.9786 28.8125 99.5512C28.8125 99.1239 28.9788 98.7223 29.281 98.4201C29.5833 98.1178 29.9849 97.9515 30.4122 97.9515C30.8395 97.9515 31.2412 98.1178 31.5434 98.4201C31.8457 98.7223 32.012 99.1239 32.012 99.5512C32.012 99.9786 31.8457 100.38 31.5434 100.682ZM63.5754 114.582C63.5754 115.464 62.8579 116.181 61.9757 116.181C61.0935 116.181 60.3759 115.464 60.3759 114.582C60.3759 113.7 61.0937 112.982 61.9757 112.982C62.8577 112.982 63.5754 113.7 63.5754 114.582ZM100.682 118.719C100.059 119.343 99.0437 119.342 98.4199 118.719C97.7961 118.095 97.7961 117.08 98.4199 116.456C98.7319 116.145 99.1416 115.989 99.5513 115.989C99.961 115.989 100.371 116.145 100.682 116.456C101.306 117.08 101.306 118.095 100.682 118.719Z" fill="white"/>
<path d="M88.9333 70.2427C88.9333 67.2352 86.7335 64.6877 83.7221 63.8599C83.8112 63.4922 83.8607 63.114 83.8607 62.7275C83.8607 59.8802 81.3334 57.5636 78.2273 57.5636C76.5446 57.5636 75.0332 58.2441 74.0001 59.3196C72.967 58.2441 71.4553 57.5636 69.7729 57.5636C66.6666 57.5636 64.1395 59.8802 64.1395 62.7275C64.1395 63.114 64.189 63.4922 64.2781 63.8599C61.2666 64.6875 59.0669 67.235 59.0669 70.2427C59.0669 71.7125 59.587 73.0993 60.548 74.2445C59.6084 75.4608 59.0669 76.9374 59.0669 78.5094C59.0665 80.9004 60.3441 83.1329 62.4484 84.5178C62.4484 84.5189 62.4484 84.52 62.4484 84.5212C62.4484 87.7829 65.3549 90.4366 68.9275 90.4366C70.9806 90.4366 72.8123 89.5593 74.0001 88.1946C75.1879 89.5593 77.0196 90.4366 79.0727 90.4366C82.5109 90.4366 85.3307 87.9785 85.538 84.8862C87.6262 83.6746 88.9333 81.5523 88.9333 79.2607C88.9333 77.5751 88.2146 75.9671 86.9777 74.7517C88.2144 73.5363 88.9333 71.9281 88.9333 70.2427ZM83.9563 75.9952C85.3114 76.7103 86.1202 77.9311 86.1202 79.2607C86.1202 80.252 85.6595 81.1975 84.8814 81.9046C84.1421 80.5357 82.8354 79.4459 81.1845 78.9273C80.4439 78.6946 79.6543 79.1066 79.4214 79.8474C79.1886 80.5884 79.6007 81.3777 80.3415 81.6104C81.7751 82.061 82.7385 83.2308 82.7385 84.5213C82.7385 86.2323 81.0938 87.6243 79.0719 87.6243C77.0503 87.6243 75.4056 86.2323 75.4056 84.5213V75.5032C75.4056 73.7923 77.0503 72.4004 79.0719 72.4004C79.8486 72.4004 80.4782 71.7708 80.4782 70.9942C80.4782 70.2176 79.8486 69.588 79.0719 69.588C77.7118 69.588 76.4488 69.9735 75.4056 70.6299V68.8337C75.4056 68.057 74.776 67.4274 73.9993 67.4274C73.2227 67.4274 72.5931 68.057 72.5931 68.8337V76.6406C72.1198 76.3436 71.6008 76.0977 71.0395 75.9213C70.2981 75.6884 69.5091 76.1006 69.2764 76.8412C69.0435 77.5822 69.4555 78.3716 70.1963 78.6044C71.6299 79.055 72.5931 80.2248 72.5931 81.5152V84.5212C72.5931 86.2321 70.9483 87.6241 68.9267 87.6241C66.9049 87.6241 65.2602 86.2321 65.2602 84.5212C65.2602 83.7878 65.5711 83.075 66.1354 82.514C66.6863 81.9665 66.6889 81.076 66.1414 80.5252C65.5939 79.9743 64.7037 79.9717 64.1528 80.5192C63.8159 80.8542 63.5258 81.2202 63.2847 81.6093C62.3967 80.7693 61.8783 79.6642 61.8783 78.509C61.8783 76.4255 63.5134 74.5951 65.8547 74.0579C66.6117 73.8843 67.0846 73.1298 66.9109 72.3729C66.7373 71.6158 65.9826 71.1431 65.2259 71.3167C64.2833 71.5329 63.4156 71.8938 62.6461 72.3676C62.1471 71.741 61.8784 71.0071 61.8784 70.2423C61.879 68.1272 63.8841 66.4052 66.3559 66.3888C66.3685 66.3892 66.3811 66.3909 66.3934 66.3909C66.7144 66.3909 67.0371 66.2816 67.3013 66.0579C67.8404 65.6015 67.9486 64.8272 67.5867 64.2446C67.576 64.2274 67.5662 64.2097 67.555 64.193C67.5492 64.1846 67.5422 64.1765 67.5362 64.1681C67.5145 64.1375 67.4922 64.1075 67.468 64.0787C67.4672 64.0777 67.4667 64.0768 67.4659 64.076C67.2314 63.7987 66.9514 63.3397 66.9514 62.7274C66.9514 61.4308 68.217 60.3759 69.7724 60.3759C71.3277 60.3759 72.5933 61.4308 72.5933 62.7274C72.5933 63.504 73.2229 64.1336 73.9995 64.1336C74.7761 64.1336 75.4058 63.504 75.4058 62.7274C75.4058 61.4308 76.6714 60.3759 78.2267 60.3759C79.782 60.3759 81.0476 61.4308 81.0476 62.7274C81.0476 63.0739 80.9569 63.3694 80.8367 63.6124C80.0368 63.6879 79.2632 63.8812 78.5288 64.191C77.8131 64.4927 77.4776 65.3175 77.7793 66.0332C78.081 66.7487 78.9058 67.0845 79.6215 66.7826C80.2294 66.5263 80.8834 66.3945 81.5655 66.3892C81.579 66.3896 81.5923 66.3909 81.6058 66.3909C81.6184 66.3909 81.6308 66.3892 81.6433 66.3888C84.1151 66.405 86.1202 68.1272 86.1202 70.2423C86.1202 71.5719 85.3114 72.7925 83.9563 73.5078C83.4951 73.7512 83.2063 74.2299 83.2063 74.7515C83.2063 75.2731 83.4951 75.7518 83.9563 75.9952Z" fill="white"/>
</g>
<defs>
<clipPath id="clip0">
<rect x="26" y="26" width="96" height="96" fill="white"/>
</clipPath>
</defs>
</svg>
