<svg width="148" height="148" viewBox="0 0 148 148" fill="none" xmlns="http://www.w3.org/2000/svg">
<circle cx="74" cy="74" r="74" fill="#21C5F9"/>
<g clip-path="url(#clip0)">
<path d="M65.3258 90.9683C64.9972 90.9683 64.6662 90.8553 64.396 90.6253L55.1016 82.7111C54.781 82.4377 54.5967 82.0386 54.5967 81.617C54.5967 81.1962 54.7818 80.797 55.1016 80.5237L64.396 72.6095C64.9996 72.095 65.9061 72.1679 66.4207 72.7714C66.9345 73.3758 66.8623 74.2823 66.258 74.7961L58.2484 81.617L66.258 88.4379C66.8623 88.9525 66.9345 89.859 66.4207 90.4626C66.1361 90.7968 65.7322 90.9683 65.3258 90.9683Z" fill="white"/>
<path d="M83.6743 90.9683C83.268 90.9683 82.864 90.7968 82.5803 90.4626C82.0657 89.859 82.1386 88.9525 82.7422 88.4379L90.7517 81.617L82.7422 74.7961C82.1386 74.2823 82.0657 73.3758 82.5803 72.7714C83.094 72.1679 84.0014 72.095 84.6041 72.6095L93.8985 80.5237C94.2191 80.797 94.4035 81.1962 94.4035 81.617C94.4035 82.0386 94.2191 82.4377 93.8985 82.7111L84.6041 90.6253C84.334 90.8553 84.003 90.9683 83.6743 90.9683Z" fill="white"/>
<path d="M71.2096 96.9044C71.111 96.9044 71.0116 96.8939 70.9114 96.8731C70.1356 96.7096 69.6386 95.9473 69.8021 95.1715L75.5947 67.669C75.7582 66.8931 76.5197 66.3962 77.2963 66.5597C78.0722 66.7232 78.5691 67.4846 78.4056 68.2613L72.613 95.7638C72.4704 96.4403 71.874 96.9044 71.2096 96.9044Z" fill="white"/>
<path d="M108.356 111.888H40.6439C35.3266 111.888 31 107.562 31 102.244V44.7736C31 39.4563 35.3266 35.1297 40.6439 35.1297H108.356C113.673 35.1297 118 39.4563 118 44.7736V102.244C118 107.562 113.673 111.888 108.356 111.888ZM40.6439 38.0024C36.9104 38.0024 33.8726 41.0401 33.8726 44.7736V102.244C33.8726 105.978 36.9104 109.015 40.6439 109.015H108.356C112.09 109.015 115.127 105.978 115.127 102.244V44.7736C115.127 41.0401 112.09 38.0024 108.356 38.0024H40.6439Z" fill="white"/>
<path d="M116.564 58.1293H32.4363C31.6428 58.1293 31 57.4865 31 56.693C31 55.9003 31.6428 55.2567 32.4363 55.2567H116.564C117.357 55.2567 118 55.9003 118 56.693C118 57.4865 117.357 58.1293 116.564 58.1293Z" fill="white"/>
<path d="M55.541 51.2563C53.0355 51.2563 50.9956 49.2164 50.9956 46.7109C50.9956 44.2045 53.0355 42.1655 55.541 42.1655C58.0474 42.1655 60.0864 44.2045 60.0864 46.7109C60.0864 49.2164 58.0474 51.2563 55.541 51.2563ZM55.541 45.0381C54.6193 45.0381 53.8682 45.7883 53.8682 46.7109C53.8682 47.6334 54.6193 48.3836 55.541 48.3836C56.4636 48.3836 57.2138 47.6334 57.2138 46.7109C57.2138 45.7883 56.4636 45.0381 55.541 45.0381Z" fill="white"/>
<path d="M41.5752 51.2122C39.0688 51.2122 37.0298 49.1731 37.0298 46.6668C37.0298 44.1604 39.0688 42.1214 41.5752 42.1214C44.0815 42.1214 46.1206 44.1604 46.1206 46.6668C46.1206 49.1731 44.0815 51.2122 41.5752 51.2122ZM41.5752 44.994C40.6534 44.994 39.9024 45.745 39.9024 46.6668C39.9024 47.5893 40.6534 48.3395 41.5752 48.3395C42.4977 48.3395 43.248 47.5893 43.248 46.6668C43.248 45.745 42.4977 44.994 41.5752 44.994Z" fill="white"/>
<path d="M69.5065 51.2996C67.001 51.2996 64.9619 49.2605 64.9619 46.7541C64.9619 44.2486 67.001 42.2095 69.5065 42.2095C72.0129 42.2095 74.0519 44.2486 74.0519 46.7541C74.0519 49.2605 72.0129 51.2996 69.5065 51.2996ZM69.5065 45.0814C68.5848 45.0814 67.8346 45.8316 67.8346 46.7541C67.8346 47.6767 68.5848 48.4269 69.5065 48.4269C70.4291 48.4269 71.1793 47.6767 71.1793 46.7541C71.1793 45.8316 70.4291 45.0814 69.5065 45.0814Z" fill="white"/>
</g>
<defs>
<clipPath id="clip0">
<rect x="31" y="30" width="87" height="87" fill="white"/>
</clipPath>
</defs>
</svg>
