<svg width="29" height="29" viewBox="0 0 29 29" fill="none" xmlns="http://www.w3.org/2000/svg">
<g clip-path="url(#clip0)">
<path d="M10.819 26.397C9.56493 26.397 8.27415 26.2954 6.97562 26.0919C4.68854 25.733 2.37337 24.5367 1.71824 24.1785L0 23.239L1.86028 22.6273C3.89381 21.9586 5.13082 21.5438 6.66211 20.8942C5.12883 20.1517 3.94713 18.816 3.37829 17.0893L2.94552 15.7755L3.30041 15.8297C2.96389 15.4905 2.69816 15.1463 2.49218 14.8332C1.75961 13.7205 1.37176 12.3609 1.45429 11.1958L1.53571 10.0491L2.22225 10.315C1.93263 9.76807 1.72333 9.18397 1.60031 8.57176C1.30052 7.07875 1.55142 5.49259 2.30699 4.10556L2.90503 3.0077L3.70486 3.96838C6.23443 7.00706 9.43837 8.80961 13.241 9.33729C13.0857 8.26665 13.2021 7.2334 13.5873 6.30724C14.0358 5.22886 14.8336 4.31442 15.8938 3.66261C17.0713 2.93889 18.4993 2.58821 19.9146 2.67516C21.4163 2.76742 22.7796 3.33007 23.8624 4.30336C24.3912 4.16596 24.7808 4.01927 25.3074 3.82103C25.6243 3.70177 25.9836 3.56637 26.4331 3.41149L28.0899 2.84066L27.0095 5.92624C27.0807 5.92027 27.1542 5.91518 27.231 5.91186L29.0001 5.83177L27.9545 7.26084C27.8945 7.3427 27.8792 7.36593 27.858 7.39802C27.7737 7.52502 27.6688 7.68299 26.2336 9.59948C25.8743 10.0794 25.6948 10.7044 25.7282 11.3598C25.8555 13.8502 25.5499 16.1034 24.8196 18.0566C24.1288 19.9045 23.0584 21.49 21.6384 22.7691C19.8812 24.3515 17.6406 25.435 14.9785 25.989C13.6727 26.2607 12.2704 26.397 10.819 26.397Z" fill="white"/>
</g>
<defs>
<clipPath id="clip0">
<rect width="29" height="29" fill="white"/>
</clipPath>
</defs>
</svg>
