<svg width="148" height="148" viewBox="0 0 148 148" fill="none" xmlns="http://www.w3.org/2000/svg">
<circle cx="74" cy="74" r="74" fill="#21C5F9"/>
<path d="M112.891 32.2656H36.1094C34.9785 32.2669 33.8943 32.7168 33.0946 33.5165C32.2949 34.3161 31.8451 35.4003 31.8438 36.5312V110.469C31.8451 111.6 32.2949 112.684 33.0946 113.484C33.8943 114.283 34.9785 114.733 36.1094 114.734H112.891C114.022 114.733 115.106 114.283 115.905 113.484C116.705 112.684 117.155 111.6 117.156 110.469V36.5312C117.155 35.4003 116.705 34.3161 115.905 33.5165C115.106 32.7168 114.022 32.2669 112.891 32.2656ZM36.1094 35.1094H112.891C113.268 35.1098 113.629 35.2597 113.896 35.5263C114.162 35.7929 114.312 36.1543 114.312 36.5312V43.6406H34.6875V36.5312C34.6879 36.1543 34.8379 35.7929 35.1044 35.5263C35.371 35.2597 35.7324 35.1098 36.1094 35.1094ZM112.891 111.891H36.1094C35.7324 111.89 35.371 111.74 35.1044 111.474C34.8379 111.207 34.6879 110.846 34.6875 110.469V46.4844H114.312V110.469C114.312 110.846 114.162 111.207 113.896 111.474C113.629 111.74 113.268 111.89 112.891 111.891Z" fill="white"/>
<path d="M50.3281 40.7969C51.1134 40.7969 51.75 40.1603 51.75 39.375C51.75 38.5897 51.1134 37.9531 50.3281 37.9531C49.5428 37.9531 48.9062 38.5897 48.9062 39.375C48.9062 40.1603 49.5428 40.7969 50.3281 40.7969Z" fill="white"/>
<path d="M44.6406 40.7969C45.4259 40.7969 46.0625 40.1603 46.0625 39.375C46.0625 38.5897 45.4259 37.9531 44.6406 37.9531C43.8553 37.9531 43.2188 38.5897 43.2188 39.375C43.2188 40.1603 43.8553 40.7969 44.6406 40.7969Z" fill="white"/>
<path d="M38.9531 40.7969C39.7384 40.7969 40.375 40.1603 40.375 39.375C40.375 38.5897 39.7384 37.9531 38.9531 37.9531C38.1678 37.9531 37.5312 38.5897 37.5312 39.375C37.5312 40.1603 38.1678 40.7969 38.9531 40.7969Z" fill="white"/>
<path d="M107.203 52.1719H41.7969C41.4198 52.1719 41.0581 52.3217 40.7915 52.5883C40.5248 52.855 40.375 53.2166 40.375 53.5938V76.3438C40.375 76.7209 40.5248 77.0825 40.7915 77.3492C41.0581 77.6158 41.4198 77.7656 41.7969 77.7656H107.203C107.58 77.7656 107.942 77.6158 108.209 77.3492C108.475 77.0825 108.625 76.7209 108.625 76.3438V53.5938C108.625 53.2166 108.475 52.855 108.209 52.5883C107.942 52.3217 107.58 52.1719 107.203 52.1719ZM83.8931 73.2272L87.2969 69.8232L92.3955 74.9219H85.1641L83.8931 73.2272ZM81.6094 74.9219H70.2344L75.9219 67.3385L81.6094 74.9219ZM66.6797 74.9219H55.9028L63.125 64.6044L68.5766 72.3925L66.6797 74.9219ZM105.781 74.9219H96.417L88.3023 66.8071C88.1703 66.675 88.0135 66.5703 87.841 66.4988C87.6685 66.4274 87.4836 66.3906 87.2969 66.3906C87.1101 66.3906 86.9252 66.4274 86.7527 66.4988C86.5802 66.5703 86.4235 66.675 86.2914 66.8071L82.1694 70.9291L77.0594 64.1156C76.9269 63.939 76.7552 63.7957 76.5578 63.697C76.3603 63.5983 76.1426 63.5469 75.9219 63.5469C75.7011 63.5469 75.4834 63.5983 75.286 63.697C75.0886 63.7957 74.9168 63.939 74.7844 64.1156L70.3721 69.9986L64.2899 61.3096C64.1588 61.1223 63.9844 60.9693 63.7817 60.8637C63.5789 60.7582 63.3536 60.703 63.125 60.703C62.8964 60.703 62.6711 60.7582 62.4683 60.8637C62.2656 60.9693 62.0912 61.1223 61.9601 61.3096L52.4316 74.9219H43.2188V55.0156H105.781V74.9219Z" fill="white"/>
<path d="M83.0312 63.5469C83.8165 63.5469 84.4531 62.9103 84.4531 62.125C84.4531 61.3397 83.8165 60.7031 83.0312 60.7031C82.246 60.7031 81.6094 61.3397 81.6094 62.125C81.6094 62.9103 82.246 63.5469 83.0312 63.5469Z" fill="white"/>
<path d="M80.1875 83.4531C80.9728 83.4531 81.6094 82.8165 81.6094 82.0312C81.6094 81.246 80.9728 80.6094 80.1875 80.6094C79.4022 80.6094 78.7656 81.246 78.7656 82.0312C78.7656 82.8165 79.4022 83.4531 80.1875 83.4531Z" fill="white"/>
<path d="M74.5 83.4531C75.2853 83.4531 75.9219 82.8165 75.9219 82.0312C75.9219 81.246 75.2853 80.6094 74.5 80.6094C73.7147 80.6094 73.0781 81.246 73.0781 82.0312C73.0781 82.8165 73.7147 83.4531 74.5 83.4531Z" fill="white"/>
<path d="M68.8125 83.4531C69.5978 83.4531 70.2344 82.8165 70.2344 82.0312C70.2344 81.246 69.5978 80.6094 68.8125 80.6094C68.0272 80.6094 67.3906 81.246 67.3906 82.0312C67.3906 82.8165 68.0272 83.4531 68.8125 83.4531Z" fill="white"/>
<path d="M58.8594 86.2969H41.7969C41.4198 86.2969 41.0581 86.4467 40.7915 86.7133C40.5248 86.98 40.375 87.3416 40.375 87.7188V99.0938C40.375 99.4709 40.5248 99.8325 40.7915 100.099C41.0581 100.366 41.4198 100.516 41.7969 100.516H58.8594C59.2365 100.516 59.5981 100.366 59.8648 100.099C60.1314 99.8325 60.2812 99.4709 60.2812 99.0938V87.7188C60.2812 87.3416 60.1314 86.98 59.8648 86.7133C59.5981 86.4467 59.2365 86.2969 58.8594 86.2969ZM57.4375 89.1406V97.2729L51.2168 92.2963C50.9646 92.0944 50.6512 91.9844 50.3281 91.9844C50.0051 91.9844 49.6916 92.0944 49.4395 92.2963L43.2188 97.2729V89.1406H57.4375ZM53.3841 97.6719H47.2722L50.3281 95.2271L53.3841 97.6719Z" fill="white"/>
<path d="M83.0312 86.2969H65.9688C65.5916 86.2969 65.23 86.4467 64.9633 86.7133C64.6967 86.98 64.5469 87.3416 64.5469 87.7188V99.0938C64.5469 99.4709 64.6967 99.8325 64.9633 100.099C65.23 100.366 65.5916 100.516 65.9688 100.516H83.0312C83.4084 100.516 83.77 100.366 84.0367 100.099C84.3033 99.8325 84.4531 99.4709 84.4531 99.0938V87.7188C84.4531 87.3416 84.3033 86.98 84.0367 86.7133C83.77 86.4467 83.4084 86.2969 83.0312 86.2969ZM81.6094 89.1406V97.2729L75.3887 92.2963C75.1365 92.0944 74.8231 91.9844 74.5 91.9844C74.1769 91.9844 73.8635 92.0944 73.6113 92.2963L67.3906 97.2729V89.1406H81.6094ZM77.556 97.6719H71.444L74.5 95.2271L77.556 97.6719Z" fill="white"/>
<path d="M107.203 86.2969H90.1406C89.7635 86.2969 89.4019 86.4467 89.1352 86.7133C88.8686 86.98 88.7188 87.3416 88.7188 87.7188V99.0938C88.7188 99.4709 88.8686 99.8325 89.1352 100.099C89.4019 100.366 89.7635 100.516 90.1406 100.516H107.203C107.58 100.516 107.942 100.366 108.209 100.099C108.475 99.8325 108.625 99.4709 108.625 99.0938V87.7188C108.625 87.3416 108.475 86.98 108.209 86.7133C107.942 86.4467 107.58 86.2969 107.203 86.2969ZM105.781 89.1406V97.2729L99.5605 92.2963C99.3084 92.0944 98.9949 91.9844 98.6719 91.9844C98.3488 91.9844 98.0354 92.0944 97.7832 92.2963L91.5625 97.2729V89.1406H105.781ZM101.728 97.6719H95.6159L98.6719 95.2271L101.728 97.6719Z" fill="white"/>
<path d="M56.0156 103.359H44.6406C44.2635 103.359 43.9019 103.509 43.6352 103.776C43.3686 104.042 43.2188 104.404 43.2188 104.781C43.2188 105.158 43.3686 105.52 43.6352 105.787C43.9019 106.053 44.2635 106.203 44.6406 106.203H56.0156C56.3927 106.203 56.7544 106.053 57.021 105.787C57.2877 105.52 57.4375 105.158 57.4375 104.781C57.4375 104.404 57.2877 104.042 57.021 103.776C56.7544 103.509 56.3927 103.359 56.0156 103.359Z" fill="white"/>
<path d="M80.1875 103.359H68.8125C68.4354 103.359 68.0737 103.509 67.8071 103.776C67.5404 104.042 67.3906 104.404 67.3906 104.781C67.3906 105.158 67.5404 105.52 67.8071 105.787C68.0737 106.053 68.4354 106.203 68.8125 106.203H80.1875C80.5646 106.203 80.9263 106.053 81.1929 105.787C81.4596 105.52 81.6094 105.158 81.6094 104.781C81.6094 104.404 81.4596 104.042 81.1929 103.776C80.9263 103.509 80.5646 103.359 80.1875 103.359Z" fill="white"/>
<path d="M104.359 103.359H92.9844C92.6073 103.359 92.2456 103.509 91.979 103.776C91.7123 104.042 91.5625 104.404 91.5625 104.781C91.5625 105.158 91.7123 105.52 91.979 105.787C92.2456 106.053 92.6073 106.203 92.9844 106.203H104.359C104.736 106.203 105.098 106.053 105.365 105.787C105.631 105.52 105.781 105.158 105.781 104.781C105.781 104.404 105.631 104.042 105.365 103.776C105.098 103.509 104.736 103.359 104.359 103.359Z" fill="white"/>
</svg>
