<svg width="41" height="29" viewBox="0 0 41 29" fill="none" xmlns="http://www.w3.org/2000/svg">
<path d="M39.2575 2.71625C38.1454 0.738 36.9384 0.374125 34.481 0.23575C32.0261 0.0691875 25.8531 0 20.5051 0C15.1469 0 8.97131 0.0691877 6.519 0.233188C4.06669 0.374125 2.85719 0.735437 1.73481 2.71625C0.589375 4.69194 0 8.09494 0 14.0861C0 14.0912 0 14.0938 0 14.0938C0 14.0989 0 14.1014 0 14.1014V14.1066C0 20.0721 0.589375 23.5007 1.73481 25.4559C2.85719 27.4341 4.06413 27.7929 6.51644 27.9594C8.97131 28.1029 15.1469 28.1875 20.5051 28.1875C25.8531 28.1875 32.0261 28.1029 34.4836 27.962C36.941 27.7954 38.1479 27.4367 39.2601 25.4584C40.4157 23.5033 41 20.0746 41 14.1091C41 14.1091 41 14.1014 41 14.0963C41 14.0963 41 14.0912 41 14.0886C41 8.09494 40.4157 4.69194 39.2575 2.71625ZM15.375 21.7812V6.40625L28.1875 14.0938L15.375 21.7812Z" fill="#21C5F9"/>
</svg>
